<?xml version="1.0" encoding="iso-8859-1"?>
<!-- Generator: Adobe Illustrator 19.0.0, SVG Export Plug-In . SVG Version: 6.00 Build 0)  -->
<svg version="1.1" id="&#x30EC;&#x30A4;&#x30E4;&#x30FC;_1"
	 xmlns="http://www.w3.org/2000/svg" xmlns:xlink="http://www.w3.org/1999/xlink" x="0px" y="0px" viewBox="0 0 50 50"
	 style="enable-background:new 0 0 50 50;" xml:space="preserve">
<g id="XMLID_10_">
	<ellipse id="XMLID_1_" style="fill:#FFABF7;stroke:#F94EF1;stroke-miterlimit:10;" cx="25.655" cy="10" rx="4.89" ry="9.122"/>
	
		<ellipse id="XMLID_3_" transform="matrix(0.7071 -0.7071 0.7071 0.7071 -5.6555 14.7414)" style="fill:#FFABF7;stroke:#F94EF1;stroke-miterlimit:10;" cx="14.967" cy="14.198" rx="4.89" ry="9.122"/>
	<ellipse id="XMLID_4_" style="fill:#FFABF7;stroke:#F94EF1;stroke-miterlimit:10;" cx="10.378" cy="24.723" rx="9.122" ry="4.89"/>
	
		<ellipse id="XMLID_5_" transform="matrix(-0.7071 -0.7071 0.7071 -0.7071 -0.1575 70.7575)" style="fill:#FFABF7;stroke:#F94EF1;stroke-miterlimit:10;" cx="14.576" cy="35.411" rx="4.89" ry="9.122"/>
	<ellipse id="XMLID_6_" style="fill:#FFABF7;stroke:#F94EF1;stroke-miterlimit:10;" cx="25.102" cy="40" rx="4.89" ry="9.122"/>
	
		<ellipse id="XMLID_7_" transform="matrix(-0.7071 0.7071 -0.7071 -0.7071 86.4125 35.8116)" style="fill:#FFABF7;stroke:#F94EF1;stroke-miterlimit:10;" cx="35.789" cy="35.802" rx="4.89" ry="9.122"/>
	<ellipse id="XMLID_8_" style="fill:#FFABF7;stroke:#F94EF1;stroke-miterlimit:10;" cx="40.378" cy="25.277" rx="9.122" ry="4.89"/>
	
		<ellipse id="XMLID_9_" transform="matrix(0.7071 0.7071 -0.7071 0.7071 20.9127 -21.3106)" style="fill:#FFABF7;stroke:#F94EF1;stroke-miterlimit:10;" cx="36.181" cy="14.589" rx="4.89" ry="9.122"/>
	<circle id="XMLID_2_" style="fill:#FFF931;stroke:#F94EF1;stroke-miterlimit:10;" cx="25.655" cy="25.277" r="11.079"/>
</g>
</svg>
