<?xml version="1.0" encoding="utf-8"?>
<!-- Generator: Adobe Illustrator 26.0.1, SVG Export Plug-In . SVG Version: 6.00 Build 0)  -->
<svg version="1.1" id="レイヤー_1" xmlns="http://www.w3.org/2000/svg" xmlns:xlink="http://www.w3.org/1999/xlink" x="0px"
	 y="0px" viewBox="0 0 100 100" style="enable-background:new 0 0 100 100;" xml:space="preserve">
<style type="text/css">
	.st0{fill:#F950FF;}
	.st1{fill:#FFFFFF;}
</style>
<g id="XMLID_35_">
	<circle id="XMLID_29_" class="st0" cx="50" cy="50" r="50"/>
	<path id="XMLID_30_" class="st1" d="M36.2,17.5h27c10.3,0,18.7,8.4,18.7,18.7v27c0,10.3-8.4,18.7-18.7,18.7h-27
		c-10.3,0-18.7-8.4-18.7-18.7v-27C17.5,25.9,25.9,17.5,36.2,17.5z"/>
	<path id="XMLID_32_" class="st0" d="M38,23.1h23.3c8.2,0,14.9,6.7,14.9,14.9v23.3c0,8.2-6.7,14.9-14.9,14.9H38
		c-8.2,0-14.9-6.7-14.9-14.9V38C23.1,29.8,29.8,23.1,38,23.1z"/>
	<circle id="XMLID_31_" class="st1" cx="49.7" cy="49.7" r="17"/>
	<circle id="XMLID_34_" class="st0" cx="49.7" cy="49.7" r="10.4"/>
	<circle id="XMLID_33_" class="st1" cx="66.7" cy="32.3" r="4"/>
</g>
</svg>
