<?xml version="1.0" encoding="iso-8859-1"?>
<!-- Generator: Adobe Illustrator 19.0.0, SVG Export Plug-In . SVG Version: 6.00 Build 0)  -->
<svg version="1.1" id="&#x30EC;&#x30A4;&#x30E4;&#x30FC;_1"
	 xmlns="http://www.w3.org/2000/svg" xmlns:xlink="http://www.w3.org/1999/xlink" x="0px" y="0px" viewBox="0 0 100 100"
	 style="enable-background:new 0 0 100 100;" xml:space="preserve">
<g id="XMLID_401_">
	<circle id="XMLID_2_" style="fill:#29ABE2;" cx="50" cy="50" r="50"/>
	<path id="XMLID_12_" style="fill:#FFFFFF;" d="M47,42c-8.625,1-24.563-8.688-26.5-13.125c-3,4.938-3.5,12,2.563,17.438
		c-1.563,1.688-3.938,0.125-4.438-1.5c-1.625,3.625,2.75,11.875,7.438,13.25C25.5,60,23.5,59,23.5,59
		c-0.25,3.625,5,9.688,10.563,9.75c-3.5,5.125-14.188,6.438-16.563,5.688c20.938,10.438,38,4.063,48.75-7.688s9.188-25,8.625-26.188
		c2.5-0.688,5.938-5.531,6.406-7.031c-2.313,1.969-6.531,1.344-6.531,1.344l5.063-6.281l-7.688,2.719
		C67.156,27,62.438,25.75,56,28.063S47.094,35.375,47,42z"/>
</g>
</svg>
