<?xml version="1.0" encoding="utf-8"?>
<!-- Generator: Adobe Illustrator 26.0.1, SVG Export Plug-In . SVG Version: 6.00 Build 0)  -->
<svg version="1.1" id="レイヤー_1" xmlns="http://www.w3.org/2000/svg" xmlns:xlink="http://www.w3.org/1999/xlink" x="0px"
	 y="0px" viewBox="0 0 300 300" style="enable-background:new 0 0 300 300;" xml:space="preserve">
<style type="text/css">
	.st0{fill:#734523;}
</style>
<path class="st0" d="M246,27c26,0,29.72,35.96,28,48c-3,21-15,36-28,36c-12,0-27-18-28-35C217.18,61.99,222,28,246,27z"/>
<path class="st0" d="M135,14c28-14,41,8,46,16s16,46-4,62c-19,11-38.4-6-47.7-23C120,52,114,24,135,14z"/>
<path class="st0" d="M69.05,52.47C101,50,119,98,114,114s-14,24-33,18s-38-32-40-44S48.09,55.94,69.05,52.47z"/>
<path class="st0" d="M8,154c-12,16,5,41,18,49s42.56,13,51.78,0s-4.52-40-19.15-49S21,140,8,154z"/>
<path class="st0" d="M147,131c28-18,61.93-0.07,69,7c3,3,13,4,22,2c10.51-2.34,46-5,58,35s-41.36,75.84-63,66c-11-5-31,1-35,12
	s-25.53,51.91-76,37c-44-13-30-65-18-78c7.21-7.81,15.13-13.64,13-33S134,137,147,131z"/>
</svg>
